#!OML:ASF X:\für Bonn\!DataBase\2005_08_12_Daniel\c3d\Daniel.ASF
:FULLY-SPECIFIED
:DEGREES
92
root 2.81328 17.4283 -19.8174 177.513 170.779 -179.777
lowerback 52.7334 -2.07077 7.62826
upperback 14.7081 1.4559 -2.25682
thorax -4.13269 1.31174 -6.5086
lowerneck 9.09589 -4.5037 -2.57405
upperneck 7.49992 -6.00269 -0.398173
head 0.892607 -2.98404 0.401817
rclavicle -5.00937e-014 -3.4191e-014
rhumerus 25.442 -34.4397 -94.7197
rradius 8.25484
rwrist 42.2393
rhand -18.9872 15.5017
rfingers 7.12502
rthumb 7.31749 -14.3518
lclavicle -5.00937e-014 -3.4191e-014
lhumerus -23.0324 -6.32625 91.3698
lradius 71.1167
lwrist 4.23088
lhand -13.777 -9.71258
lfingers 7.12502
lthumb 12.3441 19.903
rfemur -21.4285 7.13657 9.35402
rtibia 29.6737
rfoot -7.3335 -13.0244
rtoes -12.7723
lfemur -26.2076 -8.0508 -21.0197
ltibia 37.6473
lfoot -7.7643 -3.13791
ltoes -7.31948
93
root 2.78431 17.4264 -19.8064 177.826 170.515 -179.601
lowerback 53.5795 -2.20623 7.86099
upperback 14.6664 1.49817 -2.29739
thorax -4.23676 1.35091 -6.66634
lowerneck 9.18448 -4.68473 -2.42108
upperneck 7.24869 -6.23093 -0.370527
head 0.799554 -3.08971 0.395177
rclavicle -3.97569e-014 1.27222e-014
rhumerus 26.4304 -34.801 -94.8881
rradius 8.07536
rwrist 42.5079
rhand -19.1141 15.4225
rfingers 7.12502
rthumb 7.19497 -14.4351
lclavicle -3.97569e-014 1.27222e-014
lhumerus -23.0513 -6.41039 91.3621
lradius 71.142
lwrist 4.26121
lhand -13.9972 -9.9001
lfingers 7.12502
lthumb 12.1318 19.7282
rfemur -21.6649 7.01113 9.18213
rtibia 29.7791
rfoot -7.50782 -13.1425
rtoes -13.7498
lfemur -26.5469 -8.24075 -21.0849
ltibia 37.6621
lfoot -7.73304 -3.21402
ltoes -7.40423
94
root 2.75455 17.4239 -19.7961 178.151 170.254 -179.445
lowerback 54.4238 -2.35757 8.13778
upperback 14.6113 1.54924 -2.34467
thorax -4.34355 1.39585 -6.85395
lowerneck 9.30732 -4.86643 -2.28652
upperneck 6.99821 -6.46177 -0.322756
head 0.702734 -3.19721 0.399229
rclavicle 2.38542e-015 -2.26615e-014
rhumerus 27.4864 -35.1714 -95.1136
rradius 7.85
rwrist 42.7866
rhand -19.2998 15.2614
rfingers 7.12502
rthumb 7.0158 -14.6024
lclavicle 2.38542e-015 -2.26615e-014
lhumerus -23.1258 -6.51437 91.3334
lradius 71.1366
lwrist 4.32846
lhand -14.2441 -10.1266
lfingers 7.12502
lthumb 11.8937 19.5156
rfemur -21.8957 6.9163 9.02853
rtibia 29.8213
rfoot -7.65254 -13.2813
rtoes -14.7588
lfemur -26.909 -8.4017 -21.13
ltibia 37.6813
lfoot -7.69917 -3.30773
ltoes -7.56355
95
root 2.72436 17.4227 -19.7857 178.488 169.981 -179.289
lowerback 55.256 -2.51341 8.38236
upperback 14.5518 1.58611 -2.3711
thorax -4.45 1.43078 -6.99752
lowerneck 9.4528 -5.03052 -2.17179
upperneck 6.67545 -6.67256 -0.280329
head 0.5803 -3.29554 0.407054
rclavicle -4.13472e-014 6.36111e-015
rhumerus 28.555 -35.4846 -95.3121
rradius 7.61612
rwrist 43.1409
rhand -19.5229 15.0535
rfingers 7.12502
rthumb 6.80042 -14.8173
lclavicle -4.13472e-014 6.36111e-015
lhumerus -23.205 -6.48642 91.322
lradius 71.0748
lwrist 4.30797
lhand -14.4002 -10.2921
lfingers 7.12502
lthumb 11.7432 19.3588
rfemur -22.1417 6.82893 8.86456
rtibia 29.8448
rfoot -7.81001 -13.4555
rtoes -15.7026
lfemur -27.2744 -8.5917 -21.1653
ltibia 37.6933
lfoot -7.66608 -3.37691
ltoes -7.65807
96
root 2.69363 17.4219 -19.7758 178.823 169.727 -179.149
lowerback 56.1053 -2.6761 8.63034
upperback 14.4739 1.62303 -2.40434
thorax -4.57015 1.46471 -7.14913
lowerneck 9.59585 -5.18802 -2.05115
upperneck 6.38639 -6.87248 -0.247685
head 0.467992 -3.38879 0.410974
rclavicle -1.43125e-014 -1.35174e-014
rhumerus 29.6046 -35.7715 -95.5315
rradius 7.4151
rwrist 43.4517
rhand -19.7761 14.8915
rfingers 7.12502
rthumb 6.55592 -14.987
lclavicle -1.43125e-014 -1.35174e-014
lhumerus -23.3027 -6.34594 91.3294
lradius 70.9595
lwrist 4.17591
lhand -14.5541 -10.3262
lfingers 7.12502
lthumb 11.5948 19.333
rfemur -22.4369 6.77178 8.7067
rtibia 29.8635
rfoot -7.92527 -13.6522
rtoes -16.4625
lfemur -27.6523 -8.77876 -21.1693
ltibia 37.7118
lfoot -7.61143 -3.45052
ltoes -7.74
97
root 2.66079 17.4205 -19.7647 179.188 169.482 -178.988
lowerback 56.9377 -2.81898 8.82491
upperback 14.4004 1.6589 -2.42519
thorax -4.68049 1.4954 -7.2621
lowerneck 9.65837 -5.32009 -2.02109
upperneck 6.13524 -7.04708 -0.149966
head 0.385052 -3.47258 0.446269
rclavicle -2.06736e-014 2.62396e-014
rhumerus 30.7078 -36.0104 -95.7706
rradius 7.20341
rwrist 43.7277
rhand -20.0767 14.7179
rfingers 7.12502
rthumb 6.26577 -15.1694
lclavicle -2.06736e-014 2.62396e-014
lhumerus -23.3917 -6.11789 91.3311
lradius 70.7856
lwrist 3.95679
lhand -14.6922 -10.2694
lfingers 7.12502
lthumb 11.4616 19.3972
rfemur -22.7467 6.66797 8.54233
rtibia 29.9188
rfoot -8.09867 -13.7962
rtoes -17.0161
lfemur -28.046 -8.96207 -21.1853
ltibia 37.7173
lfoot -7.57546 -3.5134
ltoes -7.89946
98
root 2.62945 17.4198 -19.7543 179.577 169.238 -178.829
lowerback 57.8091 -2.98946 9.0393
upperback 14.2848 1.68287 -2.45268
thorax -4.83251 1.51792 -7.38572
lowerneck 9.62299 -5.45226 -1.97229
upperneck 5.93566 -7.21685 -0.119141
head 0.330445 -3.55406 0.454412
rclavicle -2.38542e-014 1.59028e-014
rhumerus 31.7452 -36.2431 -95.9581
rradius 7.0682
rwrist 44.0485
rhand -20.3556 14.5291
rfingers 7.12502
rthumb 5.9965 -15.366
lclavicle -2.38542e-014 1.59028e-014
lhumerus -23.5014 -5.85271 91.3443
lradius 70.5234
lwrist 3.63236
lhand -14.8943 -10.1249
lfingers 7.12502
lthumb 11.2667 19.5525
rfemur -23.0895 6.50881 8.37651
rtibia 30.0196
rfoot -8.27528 -13.8645
rtoes -17.408
lfemur -28.4772 -9.16834 -21.1893
ltibia 37.7345
lfoot -7.53704 -3.5611
ltoes -7.98396
99
root 2.59674 17.4195 -19.7433 179.979 169.008 -178.668
lowerback 58.6878 -3.14977 9.21138
upperback 14.1692 1.70118 -2.47487
thorax -4.98082 1.53561 -7.48157
lowerneck 9.43653 -5.57439 -1.96384
upperneck 5.82955 -7.37455 -0.0885873
head 0.329966 -3.63135 0.461999
rclavicle 3.18055e-014 -1.03368e-014
rhumerus 32.8894 -36.4035 -96.2052
rradius 6.88985
rwrist 44.3526
rhand -20.6382 14.2981
rfingers 7.12502
rthumb 5.72367 -15.6046
lclavicle 3.18055e-014 -1.03368e-014
lhumerus -23.5548 -5.59094 91.3101
lradius 70.2004
lwrist 3.43504
lhand -15.1073 -9.88592
lfingers 7.12502
lthumb 11.0613 19.8026
rfemur -23.484 6.29467 8.21087
rtibia 30.1943
rfoot -8.5237 -13.8727
rtoes -17.5489
lfemur -28.9101 -9.41748 -21.1759
ltibia 37.7425
lfoot -7.50131 -3.56572
ltoes -7.97546
